<mxfile host="app.diagrams.net" modified="2021-05-22T13:49:57.953Z" agent="5.0 (Macintosh; Intel Mac OS X 10_15_7) AppleWebKit/537.36 (KHTML, like Gecko) Chrome/90.0.4430.212 Safari/537.36" etag="6ltLOVefHDK8_ucJKH6s" version="14.7.0" type="github">
  <diagram id="C5RBs43oDa-KdzZeNtuy" name="Page-1">
    <mxGraphModel dx="946" dy="645" grid="1" gridSize="10" guides="1" tooltips="1" connect="1" arrows="1" fold="1" page="1" pageScale="1" pageWidth="827" pageHeight="1169" math="0" shadow="0">
      <root>
        <mxCell id="WIyWlLk6GJQsqaUBKTNV-0" />
        <mxCell id="WIyWlLk6GJQsqaUBKTNV-1" parent="WIyWlLk6GJQsqaUBKTNV-0" />
        <mxCell id="D9LRXBewcLtEzAZVwe-y-2" value="Module" style="swimlane;fontStyle=0;childLayout=stackLayout;horizontal=1;startSize=26;horizontalStack=0;resizeParent=1;resizeParentMax=0;resizeLast=0;collapsible=1;marginBottom=0;" vertex="1" collapsed="1" parent="WIyWlLk6GJQsqaUBKTNV-1">
          <mxGeometry x="250" y="140" width="70" height="26" as="geometry">
            <mxRectangle x="330" y="30" width="150" height="104" as="alternateBounds" />
          </mxGeometry>
        </mxCell>
        <mxCell id="D9LRXBewcLtEzAZVwe-y-3" value="Id" style="text;strokeColor=none;fillColor=none;align=left;verticalAlign=top;spacingLeft=4;spacingRight=4;overflow=hidden;rotatable=0;points=[[0,0.5],[1,0.5]];portConstraint=eastwest;" vertex="1" parent="D9LRXBewcLtEzAZVwe-y-2">
          <mxGeometry y="26" width="70" height="26" as="geometry" />
        </mxCell>
        <mxCell id="D9LRXBewcLtEzAZVwe-y-4" value="Title" style="text;strokeColor=none;fillColor=none;align=left;verticalAlign=top;spacingLeft=4;spacingRight=4;overflow=hidden;rotatable=0;points=[[0,0.5],[1,0.5]];portConstraint=eastwest;" vertex="1" parent="D9LRXBewcLtEzAZVwe-y-2">
          <mxGeometry y="52" width="70" height="26" as="geometry" />
        </mxCell>
        <mxCell id="D9LRXBewcLtEzAZVwe-y-5" value="Description" style="text;strokeColor=none;fillColor=none;align=left;verticalAlign=top;spacingLeft=4;spacingRight=4;overflow=hidden;rotatable=0;points=[[0,0.5],[1,0.5]];portConstraint=eastwest;" vertex="1" parent="D9LRXBewcLtEzAZVwe-y-2">
          <mxGeometry y="78" width="70" height="26" as="geometry" />
        </mxCell>
        <mxCell id="D9LRXBewcLtEzAZVwe-y-45" style="edgeStyle=orthogonalEdgeStyle;rounded=0;orthogonalLoop=1;jettySize=auto;html=1;exitX=0.5;exitY=0;exitDx=0;exitDy=0;entryX=0;entryY=1;entryDx=0;entryDy=0;" edge="1" parent="WIyWlLk6GJQsqaUBKTNV-1" source="D9LRXBewcLtEzAZVwe-y-9" target="D9LRXBewcLtEzAZVwe-y-2">
          <mxGeometry relative="1" as="geometry" />
        </mxCell>
        <mxCell id="D9LRXBewcLtEzAZVwe-y-72" style="edgeStyle=orthogonalEdgeStyle;rounded=0;orthogonalLoop=1;jettySize=auto;html=1;exitX=0.5;exitY=1;exitDx=0;exitDy=0;entryX=0.5;entryY=0;entryDx=0;entryDy=0;" edge="1" parent="WIyWlLk6GJQsqaUBKTNV-1" source="D9LRXBewcLtEzAZVwe-y-9" target="D9LRXBewcLtEzAZVwe-y-59">
          <mxGeometry relative="1" as="geometry" />
        </mxCell>
        <object label="Question" id="D9LRXBewcLtEzAZVwe-y-9">
          <mxCell style="swimlane;fontStyle=0;childLayout=stackLayout;horizontal=1;startSize=26;horizontalStack=0;resizeParent=1;resizeParentMax=0;resizeLast=0;collapsible=1;marginBottom=0;" vertex="1" collapsed="1" parent="WIyWlLk6GJQsqaUBKTNV-1">
            <mxGeometry x="65" y="290" width="80" height="26" as="geometry">
              <mxRectangle x="60" y="210" width="140" height="156" as="alternateBounds" />
            </mxGeometry>
          </mxCell>
        </object>
        <mxCell id="D9LRXBewcLtEzAZVwe-y-10" value="Id" style="text;strokeColor=none;fillColor=none;align=left;verticalAlign=top;spacingLeft=4;spacingRight=4;overflow=hidden;rotatable=0;points=[[0,0.5],[1,0.5]];portConstraint=eastwest;" vertex="1" parent="D9LRXBewcLtEzAZVwe-y-9">
          <mxGeometry y="26" width="80" height="26" as="geometry" />
        </mxCell>
        <mxCell id="D9LRXBewcLtEzAZVwe-y-11" value="Title" style="text;strokeColor=none;fillColor=none;align=left;verticalAlign=top;spacingLeft=4;spacingRight=4;overflow=hidden;rotatable=0;points=[[0,0.5],[1,0.5]];portConstraint=eastwest;" vertex="1" parent="D9LRXBewcLtEzAZVwe-y-9">
          <mxGeometry y="52" width="80" height="26" as="geometry" />
        </mxCell>
        <mxCell id="D9LRXBewcLtEzAZVwe-y-12" value="Answer" style="text;strokeColor=none;fillColor=none;align=left;verticalAlign=top;spacingLeft=4;spacingRight=4;overflow=hidden;rotatable=0;points=[[0,0.5],[1,0.5]];portConstraint=eastwest;" vertex="1" parent="D9LRXBewcLtEzAZVwe-y-9">
          <mxGeometry y="78" width="80" height="26" as="geometry" />
        </mxCell>
        <mxCell id="D9LRXBewcLtEzAZVwe-y-17" value="QuestionTypeId" style="text;strokeColor=none;fillColor=none;align=left;verticalAlign=top;spacingLeft=4;spacingRight=4;overflow=hidden;rotatable=0;points=[[0,0.5],[1,0.5]];portConstraint=eastwest;" vertex="1" parent="D9LRXBewcLtEzAZVwe-y-9">
          <mxGeometry y="104" width="80" height="26" as="geometry" />
        </mxCell>
        <mxCell id="D9LRXBewcLtEzAZVwe-y-50" value="ModuleId" style="text;strokeColor=none;fillColor=none;align=left;verticalAlign=top;spacingLeft=4;spacingRight=4;overflow=hidden;rotatable=0;points=[[0,0.5],[1,0.5]];portConstraint=eastwest;" vertex="1" parent="D9LRXBewcLtEzAZVwe-y-9">
          <mxGeometry y="130" width="80" height="26" as="geometry" />
        </mxCell>
        <mxCell id="D9LRXBewcLtEzAZVwe-y-70" style="edgeStyle=orthogonalEdgeStyle;rounded=0;orthogonalLoop=1;jettySize=auto;html=1;exitX=0.5;exitY=0;exitDx=0;exitDy=0;entryX=0.25;entryY=1;entryDx=0;entryDy=0;" edge="1" parent="WIyWlLk6GJQsqaUBKTNV-1" source="D9LRXBewcLtEzAZVwe-y-18" target="D9LRXBewcLtEzAZVwe-y-2">
          <mxGeometry relative="1" as="geometry">
            <Array as="points">
              <mxPoint x="205" y="250" />
              <mxPoint x="268" y="250" />
            </Array>
          </mxGeometry>
        </mxCell>
        <object label="Article" id="D9LRXBewcLtEzAZVwe-y-18">
          <mxCell style="swimlane;fontStyle=0;childLayout=stackLayout;horizontal=1;startSize=26;horizontalStack=0;resizeParent=1;resizeParentMax=0;resizeLast=0;collapsible=1;marginBottom=0;" vertex="1" collapsed="1" parent="WIyWlLk6GJQsqaUBKTNV-1">
            <mxGeometry x="170" y="290" width="70" height="26" as="geometry">
              <mxRectangle x="240" y="210" width="140" height="156" as="alternateBounds" />
            </mxGeometry>
          </mxCell>
        </object>
        <mxCell id="D9LRXBewcLtEzAZVwe-y-19" value="Id" style="text;strokeColor=none;fillColor=none;align=left;verticalAlign=top;spacingLeft=4;spacingRight=4;overflow=hidden;rotatable=0;points=[[0,0.5],[1,0.5]];portConstraint=eastwest;" vertex="1" parent="D9LRXBewcLtEzAZVwe-y-18">
          <mxGeometry y="26" width="70" height="26" as="geometry" />
        </mxCell>
        <mxCell id="D9LRXBewcLtEzAZVwe-y-20" value="Title" style="text;strokeColor=none;fillColor=none;align=left;verticalAlign=top;spacingLeft=4;spacingRight=4;overflow=hidden;rotatable=0;points=[[0,0.5],[1,0.5]];portConstraint=eastwest;" vertex="1" parent="D9LRXBewcLtEzAZVwe-y-18">
          <mxGeometry y="52" width="70" height="26" as="geometry" />
        </mxCell>
        <mxCell id="D9LRXBewcLtEzAZVwe-y-21" value="Description" style="text;strokeColor=none;fillColor=none;align=left;verticalAlign=top;spacingLeft=4;spacingRight=4;overflow=hidden;rotatable=0;points=[[0,0.5],[1,0.5]];portConstraint=eastwest;" vertex="1" parent="D9LRXBewcLtEzAZVwe-y-18">
          <mxGeometry y="78" width="70" height="26" as="geometry" />
        </mxCell>
        <mxCell id="D9LRXBewcLtEzAZVwe-y-22" value="Text" style="text;strokeColor=none;fillColor=none;align=left;verticalAlign=top;spacingLeft=4;spacingRight=4;overflow=hidden;rotatable=0;points=[[0,0.5],[1,0.5]];portConstraint=eastwest;" vertex="1" parent="D9LRXBewcLtEzAZVwe-y-18">
          <mxGeometry y="104" width="70" height="26" as="geometry" />
        </mxCell>
        <mxCell id="D9LRXBewcLtEzAZVwe-y-30" value="ModuleId" style="text;strokeColor=none;fillColor=none;align=left;verticalAlign=top;spacingLeft=4;spacingRight=4;overflow=hidden;rotatable=0;points=[[0,0.5],[1,0.5]];portConstraint=eastwest;" vertex="1" parent="D9LRXBewcLtEzAZVwe-y-18">
          <mxGeometry y="130" width="70" height="26" as="geometry" />
        </mxCell>
        <mxCell id="D9LRXBewcLtEzAZVwe-y-71" style="edgeStyle=orthogonalEdgeStyle;rounded=0;orthogonalLoop=1;jettySize=auto;html=1;exitX=0.5;exitY=0;exitDx=0;exitDy=0;entryX=0.5;entryY=1;entryDx=0;entryDy=0;" edge="1" parent="WIyWlLk6GJQsqaUBKTNV-1" source="D9LRXBewcLtEzAZVwe-y-23" target="D9LRXBewcLtEzAZVwe-y-2">
          <mxGeometry relative="1" as="geometry">
            <mxPoint x="290" y="170" as="targetPoint" />
            <Array as="points">
              <mxPoint x="350" y="250" />
              <mxPoint x="285" y="250" />
            </Array>
          </mxGeometry>
        </mxCell>
        <object label="Links" id="D9LRXBewcLtEzAZVwe-y-23">
          <mxCell style="swimlane;fontStyle=0;childLayout=stackLayout;horizontal=1;startSize=26;horizontalStack=0;resizeParent=1;resizeParentMax=0;resizeLast=0;collapsible=1;marginBottom=0;" vertex="1" collapsed="1" parent="WIyWlLk6GJQsqaUBKTNV-1">
            <mxGeometry x="320" y="290" width="60" height="26" as="geometry">
              <mxRectangle x="440" y="210" width="140" height="156" as="alternateBounds" />
            </mxGeometry>
          </mxCell>
        </object>
        <mxCell id="D9LRXBewcLtEzAZVwe-y-24" value="Id" style="text;strokeColor=none;fillColor=none;align=left;verticalAlign=top;spacingLeft=4;spacingRight=4;overflow=hidden;rotatable=0;points=[[0,0.5],[1,0.5]];portConstraint=eastwest;" vertex="1" parent="D9LRXBewcLtEzAZVwe-y-23">
          <mxGeometry y="26" width="60" height="26" as="geometry" />
        </mxCell>
        <mxCell id="D9LRXBewcLtEzAZVwe-y-25" value="Title" style="text;strokeColor=none;fillColor=none;align=left;verticalAlign=top;spacingLeft=4;spacingRight=4;overflow=hidden;rotatable=0;points=[[0,0.5],[1,0.5]];portConstraint=eastwest;" vertex="1" parent="D9LRXBewcLtEzAZVwe-y-23">
          <mxGeometry y="52" width="60" height="26" as="geometry" />
        </mxCell>
        <mxCell id="D9LRXBewcLtEzAZVwe-y-26" value="Description" style="text;strokeColor=none;fillColor=none;align=left;verticalAlign=top;spacingLeft=4;spacingRight=4;overflow=hidden;rotatable=0;points=[[0,0.5],[1,0.5]];portConstraint=eastwest;" vertex="1" parent="D9LRXBewcLtEzAZVwe-y-23">
          <mxGeometry y="78" width="60" height="26" as="geometry" />
        </mxCell>
        <mxCell id="D9LRXBewcLtEzAZVwe-y-27" value="URL" style="text;strokeColor=none;fillColor=none;align=left;verticalAlign=top;spacingLeft=4;spacingRight=4;overflow=hidden;rotatable=0;points=[[0,0.5],[1,0.5]];portConstraint=eastwest;" vertex="1" parent="D9LRXBewcLtEzAZVwe-y-23">
          <mxGeometry y="104" width="60" height="26" as="geometry" />
        </mxCell>
        <mxCell id="D9LRXBewcLtEzAZVwe-y-29" value="ModuleId" style="text;strokeColor=none;fillColor=none;align=left;verticalAlign=top;spacingLeft=4;spacingRight=4;overflow=hidden;rotatable=0;points=[[0,0.5],[1,0.5]];portConstraint=eastwest;" vertex="1" parent="D9LRXBewcLtEzAZVwe-y-23">
          <mxGeometry y="130" width="60" height="26" as="geometry" />
        </mxCell>
        <mxCell id="D9LRXBewcLtEzAZVwe-y-49" style="edgeStyle=orthogonalEdgeStyle;rounded=0;orthogonalLoop=1;jettySize=auto;html=1;exitX=0.5;exitY=0;exitDx=0;exitDy=0;entryX=0.75;entryY=1;entryDx=0;entryDy=0;" edge="1" parent="WIyWlLk6GJQsqaUBKTNV-1" source="D9LRXBewcLtEzAZVwe-y-31" target="D9LRXBewcLtEzAZVwe-y-2">
          <mxGeometry relative="1" as="geometry" />
        </mxCell>
        <object label="Audio" id="D9LRXBewcLtEzAZVwe-y-31">
          <mxCell style="swimlane;fontStyle=0;childLayout=stackLayout;horizontal=1;startSize=26;horizontalStack=0;resizeParent=1;resizeParentMax=0;resizeLast=0;collapsible=1;marginBottom=0;" vertex="1" collapsed="1" parent="WIyWlLk6GJQsqaUBKTNV-1">
            <mxGeometry x="400" y="290" width="60" height="26" as="geometry">
              <mxRectangle x="600" y="210" width="140" height="156" as="alternateBounds" />
            </mxGeometry>
          </mxCell>
        </object>
        <mxCell id="D9LRXBewcLtEzAZVwe-y-32" value="Id" style="text;strokeColor=none;fillColor=none;align=left;verticalAlign=top;spacingLeft=4;spacingRight=4;overflow=hidden;rotatable=0;points=[[0,0.5],[1,0.5]];portConstraint=eastwest;" vertex="1" parent="D9LRXBewcLtEzAZVwe-y-31">
          <mxGeometry y="26" width="60" height="26" as="geometry" />
        </mxCell>
        <mxCell id="D9LRXBewcLtEzAZVwe-y-33" value="Title" style="text;strokeColor=none;fillColor=none;align=left;verticalAlign=top;spacingLeft=4;spacingRight=4;overflow=hidden;rotatable=0;points=[[0,0.5],[1,0.5]];portConstraint=eastwest;" vertex="1" parent="D9LRXBewcLtEzAZVwe-y-31">
          <mxGeometry y="52" width="60" height="26" as="geometry" />
        </mxCell>
        <mxCell id="D9LRXBewcLtEzAZVwe-y-34" value="Description" style="text;strokeColor=none;fillColor=none;align=left;verticalAlign=top;spacingLeft=4;spacingRight=4;overflow=hidden;rotatable=0;points=[[0,0.5],[1,0.5]];portConstraint=eastwest;" vertex="1" parent="D9LRXBewcLtEzAZVwe-y-31">
          <mxGeometry y="78" width="60" height="26" as="geometry" />
        </mxCell>
        <mxCell id="D9LRXBewcLtEzAZVwe-y-35" value="Path" style="text;strokeColor=none;fillColor=none;align=left;verticalAlign=top;spacingLeft=4;spacingRight=4;overflow=hidden;rotatable=0;points=[[0,0.5],[1,0.5]];portConstraint=eastwest;" vertex="1" parent="D9LRXBewcLtEzAZVwe-y-31">
          <mxGeometry y="104" width="60" height="26" as="geometry" />
        </mxCell>
        <mxCell id="D9LRXBewcLtEzAZVwe-y-36" value="ModuleId" style="text;strokeColor=none;fillColor=none;align=left;verticalAlign=top;spacingLeft=4;spacingRight=4;overflow=hidden;rotatable=0;points=[[0,0.5],[1,0.5]];portConstraint=eastwest;" vertex="1" parent="D9LRXBewcLtEzAZVwe-y-31">
          <mxGeometry y="130" width="60" height="26" as="geometry" />
        </mxCell>
        <mxCell id="D9LRXBewcLtEzAZVwe-y-73" style="edgeStyle=orthogonalEdgeStyle;rounded=0;orthogonalLoop=1;jettySize=auto;html=1;exitX=0.5;exitY=1;exitDx=0;exitDy=0;entryX=0.5;entryY=0;entryDx=0;entryDy=0;" edge="1" parent="WIyWlLk6GJQsqaUBKTNV-1" source="D9LRXBewcLtEzAZVwe-y-37" target="D9LRXBewcLtEzAZVwe-y-52">
          <mxGeometry relative="1" as="geometry" />
        </mxCell>
        <mxCell id="D9LRXBewcLtEzAZVwe-y-37" value="User" style="swimlane;fontStyle=0;childLayout=stackLayout;horizontal=1;startSize=26;horizontalStack=0;resizeParent=1;resizeParentMax=0;resizeLast=0;collapsible=1;marginBottom=0;" vertex="1" collapsed="1" parent="WIyWlLk6GJQsqaUBKTNV-1">
          <mxGeometry x="135" y="80" width="60" height="26" as="geometry">
            <mxRectangle x="105" y="400" width="150" height="156" as="alternateBounds" />
          </mxGeometry>
        </mxCell>
        <mxCell id="D9LRXBewcLtEzAZVwe-y-38" value="Id" style="text;strokeColor=none;fillColor=none;align=left;verticalAlign=top;spacingLeft=4;spacingRight=4;overflow=hidden;rotatable=0;points=[[0,0.5],[1,0.5]];portConstraint=eastwest;" vertex="1" parent="D9LRXBewcLtEzAZVwe-y-37">
          <mxGeometry y="26" width="60" height="26" as="geometry" />
        </mxCell>
        <mxCell id="D9LRXBewcLtEzAZVwe-y-39" value="Name" style="text;strokeColor=none;fillColor=none;align=left;verticalAlign=top;spacingLeft=4;spacingRight=4;overflow=hidden;rotatable=0;points=[[0,0.5],[1,0.5]];portConstraint=eastwest;" vertex="1" parent="D9LRXBewcLtEzAZVwe-y-37">
          <mxGeometry y="52" width="60" height="26" as="geometry" />
        </mxCell>
        <mxCell id="D9LRXBewcLtEzAZVwe-y-40" value="Email" style="text;strokeColor=none;fillColor=none;align=left;verticalAlign=top;spacingLeft=4;spacingRight=4;overflow=hidden;rotatable=0;points=[[0,0.5],[1,0.5]];portConstraint=eastwest;" vertex="1" parent="D9LRXBewcLtEzAZVwe-y-37">
          <mxGeometry y="78" width="60" height="26" as="geometry" />
        </mxCell>
        <mxCell id="D9LRXBewcLtEzAZVwe-y-41" value="Role" style="text;strokeColor=none;fillColor=none;align=left;verticalAlign=top;spacingLeft=4;spacingRight=4;overflow=hidden;rotatable=0;points=[[0,0.5],[1,0.5]];portConstraint=eastwest;" vertex="1" parent="D9LRXBewcLtEzAZVwe-y-37">
          <mxGeometry y="104" width="60" height="26" as="geometry" />
        </mxCell>
        <mxCell id="D9LRXBewcLtEzAZVwe-y-43" value="Token" style="text;strokeColor=none;fillColor=none;align=left;verticalAlign=top;spacingLeft=4;spacingRight=4;overflow=hidden;rotatable=0;points=[[0,0.5],[1,0.5]];portConstraint=eastwest;" vertex="1" parent="D9LRXBewcLtEzAZVwe-y-37">
          <mxGeometry y="130" width="60" height="26" as="geometry" />
        </mxCell>
        <mxCell id="D9LRXBewcLtEzAZVwe-y-52" value="Role" style="swimlane;fontStyle=0;childLayout=stackLayout;horizontal=1;startSize=26;horizontalStack=0;resizeParent=1;resizeParentMax=0;resizeLast=0;collapsible=1;marginBottom=0;" vertex="1" collapsed="1" parent="WIyWlLk6GJQsqaUBKTNV-1">
          <mxGeometry x="135" y="140" width="60" height="26" as="geometry">
            <mxRectangle x="105" y="470" width="144" height="78" as="alternateBounds" />
          </mxGeometry>
        </mxCell>
        <mxCell id="D9LRXBewcLtEzAZVwe-y-53" value="Id" style="text;strokeColor=none;fillColor=none;align=left;verticalAlign=top;spacingLeft=4;spacingRight=4;overflow=hidden;rotatable=0;points=[[0,0.5],[1,0.5]];portConstraint=eastwest;" vertex="1" parent="D9LRXBewcLtEzAZVwe-y-52">
          <mxGeometry y="26" width="60" height="26" as="geometry" />
        </mxCell>
        <mxCell id="D9LRXBewcLtEzAZVwe-y-54" value="Description" style="text;strokeColor=none;fillColor=none;align=left;verticalAlign=top;spacingLeft=4;spacingRight=4;overflow=hidden;rotatable=0;points=[[0,0.5],[1,0.5]];portConstraint=eastwest;" vertex="1" parent="D9LRXBewcLtEzAZVwe-y-52">
          <mxGeometry y="52" width="60" height="26" as="geometry" />
        </mxCell>
        <mxCell id="D9LRXBewcLtEzAZVwe-y-59" value="QuestionType" style="swimlane;fontStyle=0;childLayout=stackLayout;horizontal=1;startSize=26;horizontalStack=0;resizeParent=1;resizeParentMax=0;resizeLast=0;collapsible=1;marginBottom=0;" vertex="1" collapsed="1" parent="WIyWlLk6GJQsqaUBKTNV-1">
          <mxGeometry x="50" y="340" width="110" height="26" as="geometry">
            <mxRectangle x="30" y="400" width="144" height="78" as="alternateBounds" />
          </mxGeometry>
        </mxCell>
        <mxCell id="D9LRXBewcLtEzAZVwe-y-60" value="Id" style="text;strokeColor=none;fillColor=none;align=left;verticalAlign=top;spacingLeft=4;spacingRight=4;overflow=hidden;rotatable=0;points=[[0,0.5],[1,0.5]];portConstraint=eastwest;" vertex="1" parent="D9LRXBewcLtEzAZVwe-y-59">
          <mxGeometry y="26" width="110" height="26" as="geometry" />
        </mxCell>
        <mxCell id="D9LRXBewcLtEzAZVwe-y-61" value="Description" style="text;strokeColor=none;fillColor=none;align=left;verticalAlign=top;spacingLeft=4;spacingRight=4;overflow=hidden;rotatable=0;points=[[0,0.5],[1,0.5]];portConstraint=eastwest;" vertex="1" parent="D9LRXBewcLtEzAZVwe-y-59">
          <mxGeometry y="52" width="110" height="26" as="geometry" />
        </mxCell>
        <mxCell id="D9LRXBewcLtEzAZVwe-y-80" style="edgeStyle=orthogonalEdgeStyle;rounded=0;orthogonalLoop=1;jettySize=auto;html=1;exitX=0.5;exitY=1;exitDx=0;exitDy=0;entryX=0.5;entryY=0;entryDx=0;entryDy=0;" edge="1" parent="WIyWlLk6GJQsqaUBKTNV-1" source="D9LRXBewcLtEzAZVwe-y-74" target="D9LRXBewcLtEzAZVwe-y-2">
          <mxGeometry relative="1" as="geometry" />
        </mxCell>
        <mxCell id="D9LRXBewcLtEzAZVwe-y-74" value="Achievement" style="swimlane;fontStyle=0;childLayout=stackLayout;horizontal=1;startSize=26;horizontalStack=0;resizeParent=1;resizeParentMax=0;resizeLast=0;collapsible=1;marginBottom=0;" vertex="1" collapsed="1" parent="WIyWlLk6GJQsqaUBKTNV-1">
          <mxGeometry x="235" y="80" width="100" height="26" as="geometry">
            <mxRectangle x="335" y="-180" width="140" height="156" as="alternateBounds" />
          </mxGeometry>
        </mxCell>
        <mxCell id="D9LRXBewcLtEzAZVwe-y-75" value="Id" style="text;strokeColor=none;fillColor=none;align=left;verticalAlign=top;spacingLeft=4;spacingRight=4;overflow=hidden;rotatable=0;points=[[0,0.5],[1,0.5]];portConstraint=eastwest;" vertex="1" parent="D9LRXBewcLtEzAZVwe-y-74">
          <mxGeometry y="26" width="100" height="26" as="geometry" />
        </mxCell>
        <mxCell id="D9LRXBewcLtEzAZVwe-y-76" value="Score" style="text;strokeColor=none;fillColor=none;align=left;verticalAlign=top;spacingLeft=4;spacingRight=4;overflow=hidden;rotatable=0;points=[[0,0.5],[1,0.5]];portConstraint=eastwest;" vertex="1" parent="D9LRXBewcLtEzAZVwe-y-74">
          <mxGeometry y="52" width="100" height="26" as="geometry" />
        </mxCell>
        <mxCell id="D9LRXBewcLtEzAZVwe-y-77" value="ExpiresAt" style="text;strokeColor=none;fillColor=none;align=left;verticalAlign=top;spacingLeft=4;spacingRight=4;overflow=hidden;rotatable=0;points=[[0,0.5],[1,0.5]];portConstraint=eastwest;" vertex="1" parent="D9LRXBewcLtEzAZVwe-y-74">
          <mxGeometry y="78" width="100" height="26" as="geometry" />
        </mxCell>
        <mxCell id="D9LRXBewcLtEzAZVwe-y-78" value="UserId" style="text;strokeColor=none;fillColor=none;align=left;verticalAlign=top;spacingLeft=4;spacingRight=4;overflow=hidden;rotatable=0;points=[[0,0.5],[1,0.5]];portConstraint=eastwest;" vertex="1" parent="D9LRXBewcLtEzAZVwe-y-74">
          <mxGeometry y="104" width="100" height="26" as="geometry" />
        </mxCell>
        <mxCell id="D9LRXBewcLtEzAZVwe-y-79" value="ModuleId" style="text;strokeColor=none;fillColor=none;align=left;verticalAlign=top;spacingLeft=4;spacingRight=4;overflow=hidden;rotatable=0;points=[[0,0.5],[1,0.5]];portConstraint=eastwest;" vertex="1" parent="D9LRXBewcLtEzAZVwe-y-74">
          <mxGeometry y="130" width="100" height="26" as="geometry" />
        </mxCell>
        <mxCell id="D9LRXBewcLtEzAZVwe-y-81" style="edgeStyle=orthogonalEdgeStyle;rounded=0;orthogonalLoop=1;jettySize=auto;html=1;exitX=0;exitY=0.5;exitDx=0;exitDy=0;entryX=1;entryY=0.5;entryDx=0;entryDy=0;" edge="1" parent="WIyWlLk6GJQsqaUBKTNV-1" source="D9LRXBewcLtEzAZVwe-y-75" target="D9LRXBewcLtEzAZVwe-y-37">
          <mxGeometry relative="1" as="geometry" />
        </mxCell>
        <mxCell id="D9LRXBewcLtEzAZVwe-y-82" value="EnglishTrainner" style="text;html=1;strokeColor=none;fillColor=none;align=center;verticalAlign=middle;whiteSpace=wrap;rounded=0;startSize=26;fontSize=25;" vertex="1" parent="WIyWlLk6GJQsqaUBKTNV-1">
          <mxGeometry x="100" y="30" width="40" height="20" as="geometry" />
        </mxCell>
      </root>
    </mxGraphModel>
  </diagram>
</mxfile>
